<?xml version="1.0" encoding="UTF-8" standalone="no"?><!DOCTYPE svg PUBLIC "-//W3C//DTD SVG 1.1//EN" "http://www.w3.org/Graphics/SVG/1.1/DTD/svg11.dtd"><svg width="100%" height="100%" viewBox="0 0 256 193" version="1.1" xmlns="http://www.w3.org/2000/svg" xmlns:xlink="http://www.w3.org/1999/xlink" xml:space="preserve" xmlns:serif="http://www.serif.com/" style="fill-rule:evenodd;clip-rule:evenodd;stroke-miterlimit:10;"><g id="BACKGROUND"></g><g id="OBJECTS"><path d="M255.993,166.425c0,-14.534 -11.954,-26.316 -26.699,-26.316l-15.56,0c-12.054,0 -21.824,-9.631 -21.824,-21.511c0,-11.879 9.77,-21.51 21.824,-21.51l7.037,0c13.344,0 24.161,-10.662 24.161,-23.814c0,-13.152 -10.817,-23.814 -24.161,-23.814l-25.042,0c-4.219,0 -7.638,-3.371 -7.638,-7.529c0,-4.158 3.419,-7.528 7.638,-7.528l6.865,0c9.432,0 17.079,-7.537 17.079,-16.833c0,-9.298 -7.647,-16.834 -17.079,-16.834l-161.182,0c-9.433,0 -17.079,7.536 -17.079,16.834c0,9.296 7.646,16.833 17.079,16.833l11.742,0c8.437,0 15.276,6.741 15.276,15.057c0,8.315 -6.839,15.056 -15.276,15.056l-20.193,0c-12.267,0 -22.213,9.802 -22.213,21.894c0,12.091 9.946,21.893 22.213,21.893l4.613,0c12.823,0 23.218,10.246 23.218,22.884c0,12.638 -10.395,22.884 -23.218,22.884l-17.615,0c-10.834,0 -19.617,8.657 -19.617,19.334c0,10.679 8.783,19.336 19.617,19.336l210.731,0l-0.001,-0.036c14.097,-0.716 25.304,-12.208 25.304,-26.28" style="fill:#dae5fa;fill-rule:nonzero;"/><g opacity="0.5"><g><clipPath id="_clip1"><path d="M255.993,166.424c0,-14.533 -11.954,-26.315 -26.699,-26.315l-15.56,0c-12.054,0 -21.825,-9.631 -21.825,-21.511c0,-11.88 9.771,-21.511 21.825,-21.511l7.037,0c13.344,0 24.162,-10.662 24.162,-23.813c0,-13.153 -10.818,-23.815 -24.162,-23.815l-25.042,0c-4.219,0 -7.638,-3.37 -7.638,-7.528c0,-4.158 3.419,-7.529 7.638,-7.529l6.865,0c9.432,0 17.079,-7.536 17.079,-16.833c0,-9.296 -7.647,-16.833 -17.079,-16.833l-161.182,0c-9.433,0 -17.079,7.537 -17.079,16.833c0,9.297 7.646,16.833 17.079,16.833l11.742,0c8.437,0 15.276,6.742 15.276,15.057c0,8.316 -6.839,15.057 -15.276,15.057l-20.193,0c-12.267,0 -22.213,9.802 -22.213,21.894c0,12.091 9.946,21.893 22.213,21.893l4.613,0c12.823,0 23.218,10.246 23.218,22.884c0,12.639 -10.395,22.884 -23.218,22.884l-17.615,0c-10.834,0 -19.617,8.656 -19.617,19.335c0,10.678 8.783,19.335 19.617,19.335l210.731,0l-0.001,-0.037c14.097,-0.714 25.304,-12.207 25.304,-26.28Z" clip-rule="nonzero"/></clipPath><g clip-path="url(#_clip1)"><rect x="12.691" y="53.939" width="23.702" height="8.49" style="fill:none;stroke:#bdcfec;stroke-width:0.44px;"/><rect x="60.096" y="53.939" width="23.702" height="8.49" style="fill:none;stroke:#bdcfec;stroke-width:0.44px;"/><rect x="83.798" y="53.939" width="23.702" height="8.49" style="fill:none;stroke:#bdcfec;stroke-width:0.44px;"/><rect x="107.501" y="53.939" width="23.702" height="8.49" style="fill:none;stroke:#bdcfec;stroke-width:0.44px;"/><rect x="131.203" y="53.939" width="23.702" height="8.49" style="fill:none;stroke:#bdcfec;stroke-width:0.44px;"/><rect x="154.906" y="53.939" width="23.702" height="8.49" style="fill:none;stroke:#bdcfec;stroke-width:0.44px;"/><rect x="178.608" y="53.939" width="23.702" height="8.49" style="fill:none;stroke:#bdcfec;stroke-width:0.44px;"/><rect x="202.31" y="53.939" width="23.702" height="8.49" style="fill:none;stroke:#bdcfec;stroke-width:0.44px;"/><rect x="226.013" y="53.939" width="23.702" height="8.49" style="fill:none;stroke:#bdcfec;stroke-width:0.44px;"/><rect x="36.394" y="53.939" width="23.702" height="8.49" style="fill:none;stroke:#bdcfec;stroke-width:0.44px;"/><rect x="24.543" y="-5.085" width="23.702" height="8.49" style="fill:none;stroke:#bdcfec;stroke-width:0.44px;"/><rect x="71.947" y="-5.085" width="23.702" height="8.49" style="fill:none;stroke:#bdcfec;stroke-width:0.44px;"/><rect x="95.649" y="-5.085" width="23.702" height="8.49" style="fill:none;stroke:#bdcfec;stroke-width:0.44px;"/><rect x="119.352" y="-5.085" width="23.702" height="8.49" style="fill:none;stroke:#bdcfec;stroke-width:0.44px;"/><rect x="143.055" y="-5.085" width="23.702" height="8.49" style="fill:none;stroke:#bdcfec;stroke-width:0.44px;"/><rect x="166.757" y="-5.085" width="23.702" height="8.49" style="fill:none;stroke:#bdcfec;stroke-width:0.44px;"/><rect x="190.459" y="-5.085" width="23.702" height="8.49" style="fill:none;stroke:#bdcfec;stroke-width:0.44px;"/><rect x="214.162" y="-5.085" width="23.702" height="8.49" style="fill:none;stroke:#bdcfec;stroke-width:0.44px;"/><rect x="237.864" y="-5.085" width="23.702" height="8.49" style="fill:none;stroke:#bdcfec;stroke-width:0.44px;"/><rect x="48.245" y="-5.085" width="23.702" height="8.49" style="fill:none;stroke:#bdcfec;stroke-width:0.44px;"/><rect x="24.543" y="11.793" width="23.702" height="8.49" style="fill:none;stroke:#bdcfec;stroke-width:0.44px;"/><rect x="71.947" y="11.793" width="23.702" height="8.49" style="fill:none;stroke:#bdcfec;stroke-width:0.44px;"/><rect x="95.649" y="11.793" width="23.702" height="8.49" style="fill:none;stroke:#bdcfec;stroke-width:0.44px;"/><rect x="119.352" y="11.793" width="23.702" height="8.49" style="fill:none;stroke:#bdcfec;stroke-width:0.44px;"/><rect x="143.055" y="11.793" width="23.702" height="8.49" style="fill:none;stroke:#bdcfec;stroke-width:0.44px;"/><rect x="166.757" y="11.793" width="23.702" height="8.49" style="fill:none;stroke:#bdcfec;stroke-width:0.44px;"/><rect x="190.459" y="11.793" width="23.702" height="8.49" style="fill:none;stroke:#bdcfec;stroke-width:0.44px;"/><rect x="214.162" y="11.793" width="23.702" height="8.49" style="fill:none;stroke:#bdcfec;stroke-width:0.44px;"/><rect x="237.864" y="11.793" width="23.702" height="8.49" style="fill:none;stroke:#bdcfec;stroke-width:0.44px;"/><rect x="48.245" y="11.793" width="23.702" height="8.49" style="fill:none;stroke:#bdcfec;stroke-width:0.44px;"/><rect x="24.543" y="28.672" width="23.702" height="8.49" style="fill:none;stroke:#bdcfec;stroke-width:0.44px;"/><rect x="71.947" y="28.672" width="23.702" height="8.49" style="fill:none;stroke:#bdcfec;stroke-width:0.44px;"/><rect x="95.649" y="28.672" width="23.702" height="8.49" style="fill:none;stroke:#bdcfec;stroke-width:0.44px;"/><rect x="119.352" y="28.672" width="23.702" height="8.49" style="fill:none;stroke:#bdcfec;stroke-width:0.44px;"/><rect x="143.055" y="28.672" width="23.702" height="8.49" style="fill:none;stroke:#bdcfec;stroke-width:0.44px;"/><rect x="166.757" y="28.672" width="23.702" height="8.49" style="fill:none;stroke:#bdcfec;stroke-width:0.44px;"/><rect x="190.459" y="28.672" width="23.702" height="8.49" style="fill:none;stroke:#bdcfec;stroke-width:0.44px;"/><rect x="214.162" y="28.672" width="23.702" height="8.49" style="fill:none;stroke:#bdcfec;stroke-width:0.44px;"/><rect x="237.864" y="28.672" width="23.702" height="8.49" style="fill:none;stroke:#bdcfec;stroke-width:0.44px;"/><rect x="48.245" y="28.672" width="23.702" height="8.49" style="fill:none;stroke:#bdcfec;stroke-width:0.44px;"/><rect x="24.543" y="45.551" width="23.702" height="8.49" style="fill:none;stroke:#bdcfec;stroke-width:0.44px;"/><rect x="71.947" y="45.551" width="23.702" height="8.49" style="fill:none;stroke:#bdcfec;stroke-width:0.44px;"/><rect x="95.649" y="45.551" width="23.702" height="8.49" style="fill:none;stroke:#bdcfec;stroke-width:0.44px;"/><rect x="119.352" y="45.551" width="23.702" height="8.49" style="fill:none;stroke:#bdcfec;stroke-width:0.44px;"/><rect x="143.055" y="45.551" width="23.702" height="8.49" style="fill:none;stroke:#bdcfec;stroke-width:0.44px;"/><rect x="166.757" y="45.551" width="23.702" height="8.49" style="fill:none;stroke:#bdcfec;stroke-width:0.44px;"/><rect x="190.459" y="45.551" width="23.702" height="8.49" style="fill:none;stroke:#bdcfec;stroke-width:0.44px;"/><rect x="214.162" y="45.551" width="23.702" height="8.49" style="fill:none;stroke:#bdcfec;stroke-width:0.44px;"/><rect x="237.864" y="45.551" width="23.702" height="8.49" style="fill:none;stroke:#bdcfec;stroke-width:0.44px;"/><rect x="48.245" y="45.551" width="23.702" height="8.49" style="fill:none;stroke:#bdcfec;stroke-width:0.44px;"/><rect x="24.543" y="62.429" width="23.702" height="8.49" style="fill:none;stroke:#bdcfec;stroke-width:0.44px;"/><rect x="71.947" y="62.429" width="23.702" height="8.49" style="fill:none;stroke:#bdcfec;stroke-width:0.44px;"/><rect x="95.649" y="62.429" width="23.702" height="8.49" style="fill:none;stroke:#bdcfec;stroke-width:0.44px;"/><rect x="119.352" y="62.429" width="23.702" height="8.49" style="fill:none;stroke:#bdcfec;stroke-width:0.44px;"/><rect x="143.055" y="62.429" width="23.702" height="8.49" style="fill:none;stroke:#bdcfec;stroke-width:0.44px;"/><rect x="166.757" y="62.429" width="23.702" height="8.49" style="fill:none;stroke:#bdcfec;stroke-width:0.44px;"/><rect x="190.459" y="62.429" width="23.702" height="8.49" style="fill:none;stroke:#bdcfec;stroke-width:0.44px;"/><rect x="214.162" y="62.429" width="23.702" height="8.49" style="fill:none;stroke:#bdcfec;stroke-width:0.44px;"/><rect x="237.864" y="62.429" width="23.702" height="8.49" style="fill:none;stroke:#bdcfec;stroke-width:0.44px;"/><rect x="48.245" y="62.429" width="23.702" height="8.49" style="fill:none;stroke:#bdcfec;stroke-width:0.44px;"/><rect x="24.543" y="79.308" width="23.702" height="8.49" style="fill:none;stroke:#bdcfec;stroke-width:0.44px;"/><rect x="71.947" y="79.308" width="23.702" height="8.49" style="fill:none;stroke:#bdcfec;stroke-width:0.44px;"/><rect x="95.649" y="79.308" width="23.702" height="8.49" style="fill:none;stroke:#bdcfec;stroke-width:0.44px;"/><rect x="119.352" y="79.308" width="23.702" height="8.49" style="fill:none;stroke:#bdcfec;stroke-width:0.44px;"/><rect x="143.055" y="79.308" width="23.702" height="8.49" style="fill:none;stroke:#bdcfec;stroke-width:0.44px;"/><rect x="166.757" y="79.308" width="23.702" height="8.49" style="fill:none;stroke:#bdcfec;stroke-width:0.44px;"/><rect x="190.459" y="79.308" width="23.702" height="8.49" style="fill:none;stroke:#bdcfec;stroke-width:0.44px;"/><rect x="214.162" y="79.308" width="23.702" height="8.49" style="fill:none;stroke:#bdcfec;stroke-width:0.44px;"/><rect x="237.864" y="79.308" width="23.702" height="8.49" style="fill:none;stroke:#bdcfec;stroke-width:0.44px;"/><rect x="48.245" y="79.308" width="23.702" height="8.49" style="fill:none;stroke:#bdcfec;stroke-width:0.44px;"/><rect x="24.543" y="96.187" width="23.702" height="8.49" style="fill:none;stroke:#bdcfec;stroke-width:0.44px;"/><rect x="71.947" y="96.187" width="23.702" height="8.49" style="fill:none;stroke:#bdcfec;stroke-width:0.44px;"/><rect x="95.649" y="96.187" width="23.702" height="8.49" style="fill:none;stroke:#bdcfec;stroke-width:0.44px;"/><rect x="119.352" y="96.187" width="23.702" height="8.49" style="fill:none;stroke:#bdcfec;stroke-width:0.44px;"/><rect x="143.055" y="96.187" width="23.702" height="8.49" style="fill:none;stroke:#bdcfec;stroke-width:0.44px;"/><rect x="166.757" y="96.187" width="23.702" height="8.49" style="fill:none;stroke:#bdcfec;stroke-width:0.44px;"/><rect x="190.459" y="96.187" width="23.702" height="8.49" style="fill:none;stroke:#bdcfec;stroke-width:0.44px;"/><rect x="214.162" y="96.187" width="23.702" height="8.49" style="fill:none;stroke:#bdcfec;stroke-width:0.44px;"/><rect x="237.864" y="96.187" width="23.702" height="8.49" style="fill:none;stroke:#bdcfec;stroke-width:0.44px;"/><rect x="48.245" y="96.187" width="23.702" height="8.49" style="fill:none;stroke:#bdcfec;stroke-width:0.44px;"/><rect x="24.543" y="113.065" width="23.702" height="8.49" style="fill:none;stroke:#bdcfec;stroke-width:0.44px;"/><rect x="71.947" y="113.065" width="23.702" height="8.49" style="fill:none;stroke:#bdcfec;stroke-width:0.44px;"/><rect x="95.649" y="113.065" width="23.702" height="8.49" style="fill:none;stroke:#bdcfec;stroke-width:0.44px;"/><rect x="119.352" y="113.065" width="23.702" height="8.49" style="fill:none;stroke:#bdcfec;stroke-width:0.44px;"/><rect x="143.055" y="113.065" width="23.702" height="8.49" style="fill:none;stroke:#bdcfec;stroke-width:0.44px;"/><rect x="166.757" y="113.065" width="23.702" height="8.49" style="fill:none;stroke:#bdcfec;stroke-width:0.44px;"/><rect x="190.459" y="113.065" width="23.702" height="8.49" style="fill:none;stroke:#bdcfec;stroke-width:0.44px;"/><rect x="214.162" y="113.065" width="23.702" height="8.49" style="fill:none;stroke:#bdcfec;stroke-width:0.44px;"/><rect x="237.864" y="113.065" width="23.702" height="8.49" style="fill:none;stroke:#bdcfec;stroke-width:0.44px;"/><rect x="48.245" y="113.065" width="23.702" height="8.49" style="fill:none;stroke:#bdcfec;stroke-width:0.44px;"/><rect x="24.543" y="129.944" width="23.702" height="8.49" style="fill:none;stroke:#bdcfec;stroke-width:0.44px;"/><rect x="71.947" y="129.944" width="23.702" height="8.49" style="fill:none;stroke:#bdcfec;stroke-width:0.44px;"/><rect x="95.649" y="129.944" width="23.702" height="8.49" style="fill:none;stroke:#bdcfec;stroke-width:0.44px;"/><rect x="119.352" y="129.944" width="23.702" height="8.49" style="fill:none;stroke:#bdcfec;stroke-width:0.44px;"/><rect x="143.055" y="129.944" width="23.702" height="8.49" style="fill:none;stroke:#bdcfec;stroke-width:0.44px;"/><rect x="166.757" y="129.944" width="23.702" height="8.49" style="fill:none;stroke:#bdcfec;stroke-width:0.44px;"/><rect x="190.459" y="129.944" width="23.702" height="8.49" style="fill:none;stroke:#bdcfec;stroke-width:0.44px;"/><rect x="214.162" y="129.944" width="23.702" height="8.49" style="fill:none;stroke:#bdcfec;stroke-width:0.44px;"/><rect x="237.864" y="129.944" width="23.702" height="8.49" style="fill:none;stroke:#bdcfec;stroke-width:0.44px;"/><rect x="48.245" y="129.944" width="23.702" height="8.49" style="fill:none;stroke:#bdcfec;stroke-width:0.44px;"/><rect x="24.543" y="146.823" width="23.702" height="8.49" style="fill:none;stroke:#bdcfec;stroke-width:0.44px;"/><rect x="71.947" y="146.823" width="23.702" height="8.49" style="fill:none;stroke:#bdcfec;stroke-width:0.44px;"/><rect x="95.649" y="146.823" width="23.702" height="8.49" style="fill:none;stroke:#bdcfec;stroke-width:0.44px;"/><rect x="119.352" y="146.823" width="23.702" height="8.49" style="fill:none;stroke:#bdcfec;stroke-width:0.44px;"/><rect x="143.055" y="146.823" width="23.702" height="8.49" style="fill:none;stroke:#bdcfec;stroke-width:0.44px;"/><rect x="166.757" y="146.823" width="23.702" height="8.49" style="fill:none;stroke:#bdcfec;stroke-width:0.44px;"/><rect x="190.459" y="146.823" width="23.702" height="8.49" style="fill:none;stroke:#bdcfec;stroke-width:0.44px;"/><rect x="214.162" y="146.823" width="23.702" height="8.49" style="fill:none;stroke:#bdcfec;stroke-width:0.44px;"/><rect x="237.864" y="146.823" width="23.702" height="8.49" style="fill:none;stroke:#bdcfec;stroke-width:0.44px;"/><rect x="48.245" y="146.823" width="23.702" height="8.49" style="fill:none;stroke:#bdcfec;stroke-width:0.44px;"/><rect x="24.543" y="163.701" width="23.702" height="8.49" style="fill:none;stroke:#bdcfec;stroke-width:0.44px;"/><rect x="71.947" y="163.701" width="23.702" height="8.49" style="fill:none;stroke:#bdcfec;stroke-width:0.44px;"/><rect x="95.649" y="163.701" width="23.702" height="8.49" style="fill:none;stroke:#bdcfec;stroke-width:0.44px;"/><rect x="119.352" y="163.701" width="23.702" height="8.49" style="fill:none;stroke:#bdcfec;stroke-width:0.44px;"/><rect x="143.055" y="163.701" width="23.702" height="8.49" style="fill:none;stroke:#bdcfec;stroke-width:0.44px;"/><rect x="166.757" y="163.701" width="23.702" height="8.49" style="fill:none;stroke:#bdcfec;stroke-width:0.44px;"/><rect x="190.459" y="163.701" width="23.702" height="8.49" style="fill:none;stroke:#bdcfec;stroke-width:0.44px;"/><rect x="214.162" y="163.701" width="23.702" height="8.49" style="fill:none;stroke:#bdcfec;stroke-width:0.44px;"/><rect x="237.864" y="163.701" width="23.702" height="8.49" style="fill:none;stroke:#bdcfec;stroke-width:0.44px;"/><rect x="48.245" y="163.701" width="23.702" height="8.49" style="fill:none;stroke:#bdcfec;stroke-width:0.44px;"/><rect x="24.543" y="180.58" width="23.702" height="8.49" style="fill:none;stroke:#bdcfec;stroke-width:0.44px;"/><rect x="71.947" y="180.58" width="23.702" height="8.49" style="fill:none;stroke:#bdcfec;stroke-width:0.44px;"/><rect x="95.649" y="180.58" width="23.702" height="8.49" style="fill:none;stroke:#bdcfec;stroke-width:0.44px;"/><rect x="119.352" y="180.58" width="23.702" height="8.49" style="fill:none;stroke:#bdcfec;stroke-width:0.44px;"/><rect x="143.055" y="180.58" width="23.702" height="8.49" style="fill:none;stroke:#bdcfec;stroke-width:0.44px;"/><rect x="166.757" y="180.58" width="23.702" height="8.49" style="fill:none;stroke:#bdcfec;stroke-width:0.44px;"/><rect x="190.459" y="180.58" width="23.702" height="8.49" style="fill:none;stroke:#bdcfec;stroke-width:0.44px;"/><rect x="214.162" y="180.58" width="23.702" height="8.49" style="fill:none;stroke:#bdcfec;stroke-width:0.44px;"/><rect x="237.864" y="180.58" width="23.702" height="8.49" style="fill:none;stroke:#bdcfec;stroke-width:0.44px;"/><rect x="48.245" y="180.58" width="23.702" height="8.49" style="fill:none;stroke:#bdcfec;stroke-width:0.44px;"/><rect x="12.691" y="188.969" width="23.702" height="8.49" style="fill:none;stroke:#bdcfec;stroke-width:0.44px;"/><rect x="60.096" y="188.969" width="23.702" height="8.49" style="fill:none;stroke:#bdcfec;stroke-width:0.44px;"/><rect x="83.798" y="188.969" width="23.702" height="8.49" style="fill:none;stroke:#bdcfec;stroke-width:0.44px;"/><rect x="107.501" y="188.969" width="23.702" height="8.49" style="fill:none;stroke:#bdcfec;stroke-width:0.44px;"/><rect x="131.203" y="188.969" width="23.702" height="8.49" style="fill:none;stroke:#bdcfec;stroke-width:0.44px;"/><rect x="154.906" y="188.969" width="23.702" height="8.49" style="fill:none;stroke:#bdcfec;stroke-width:0.44px;"/><rect x="178.608" y="188.969" width="23.702" height="8.49" style="fill:none;stroke:#bdcfec;stroke-width:0.44px;"/><rect x="202.31" y="188.969" width="23.702" height="8.49" style="fill:none;stroke:#bdcfec;stroke-width:0.44px;"/><rect x="226.013" y="188.969" width="23.702" height="8.49" style="fill:none;stroke:#bdcfec;stroke-width:0.44px;"/><rect x="36.394" y="188.969" width="23.702" height="8.49" style="fill:none;stroke:#bdcfec;stroke-width:0.44px;"/><rect x="12.691" y="3.303" width="23.702" height="8.49" style="fill:none;stroke:#bdcfec;stroke-width:0.44px;"/><rect x="60.096" y="3.303" width="23.702" height="8.49" style="fill:none;stroke:#bdcfec;stroke-width:0.44px;"/><rect x="83.798" y="3.303" width="23.702" height="8.49" style="fill:none;stroke:#bdcfec;stroke-width:0.44px;"/><rect x="107.501" y="3.303" width="23.702" height="8.49" style="fill:none;stroke:#bdcfec;stroke-width:0.44px;"/><rect x="131.203" y="3.303" width="23.702" height="8.49" style="fill:none;stroke:#bdcfec;stroke-width:0.44px;"/><rect x="154.906" y="3.303" width="23.702" height="8.49" style="fill:none;stroke:#bdcfec;stroke-width:0.44px;"/><rect x="178.608" y="3.303" width="23.702" height="8.49" style="fill:none;stroke:#bdcfec;stroke-width:0.44px;"/><rect x="202.31" y="3.303" width="23.702" height="8.49" style="fill:none;stroke:#bdcfec;stroke-width:0.44px;"/><rect x="226.013" y="3.303" width="23.702" height="8.49" style="fill:none;stroke:#bdcfec;stroke-width:0.44px;"/><rect x="36.394" y="3.303" width="23.702" height="8.49" style="fill:none;stroke:#bdcfec;stroke-width:0.44px;"/><rect x="12.691" y="20.182" width="23.702" height="8.49" style="fill:none;stroke:#bdcfec;stroke-width:0.44px;"/><rect x="60.096" y="20.182" width="23.702" height="8.49" style="fill:none;stroke:#bdcfec;stroke-width:0.44px;"/><rect x="83.798" y="20.182" width="23.702" height="8.49" style="fill:none;stroke:#bdcfec;stroke-width:0.44px;"/><rect x="107.501" y="20.182" width="23.702" height="8.49" style="fill:none;stroke:#bdcfec;stroke-width:0.44px;"/><rect x="131.203" y="20.182" width="23.702" height="8.49" style="fill:none;stroke:#bdcfec;stroke-width:0.44px;"/><rect x="154.906" y="20.182" width="23.702" height="8.49" style="fill:none;stroke:#bdcfec;stroke-width:0.44px;"/><rect x="178.608" y="20.182" width="23.702" height="8.49" style="fill:none;stroke:#bdcfec;stroke-width:0.44px;"/><rect x="202.31" y="20.182" width="23.702" height="8.49" style="fill:none;stroke:#bdcfec;stroke-width:0.44px;"/><rect x="226.013" y="20.182" width="23.702" height="8.49" style="fill:none;stroke:#bdcfec;stroke-width:0.44px;"/><rect x="36.394" y="20.182" width="23.702" height="8.49" style="fill:none;stroke:#bdcfec;stroke-width:0.44px;"/><rect x="12.691" y="37.06" width="23.702" height="8.49" style="fill:none;stroke:#bdcfec;stroke-width:0.44px;"/><rect x="60.096" y="37.06" width="23.702" height="8.49" style="fill:none;stroke:#bdcfec;stroke-width:0.44px;"/><rect x="83.798" y="37.06" width="23.702" height="8.49" style="fill:none;stroke:#bdcfec;stroke-width:0.44px;"/><rect x="107.501" y="37.06" width="23.702" height="8.49" style="fill:none;stroke:#bdcfec;stroke-width:0.44px;"/><rect x="131.203" y="37.06" width="23.702" height="8.49" style="fill:none;stroke:#bdcfec;stroke-width:0.44px;"/><rect x="154.906" y="37.06" width="23.702" height="8.49" style="fill:none;stroke:#bdcfec;stroke-width:0.44px;"/><rect x="178.608" y="37.06" width="23.702" height="8.49" style="fill:none;stroke:#bdcfec;stroke-width:0.44px;"/><rect x="202.31" y="37.06" width="23.702" height="8.49" style="fill:none;stroke:#bdcfec;stroke-width:0.44px;"/><rect x="226.013" y="37.06" width="23.702" height="8.49" style="fill:none;stroke:#bdcfec;stroke-width:0.44px;"/><rect x="36.394" y="37.06" width="23.702" height="8.49" style="fill:none;stroke:#bdcfec;stroke-width:0.44px;"/><rect x="12.691" y="70.818" width="23.702" height="8.49" style="fill:none;stroke:#bdcfec;stroke-width:0.44px;"/><rect x="60.096" y="70.818" width="23.702" height="8.49" style="fill:none;stroke:#bdcfec;stroke-width:0.44px;"/><rect x="83.798" y="70.818" width="23.702" height="8.49" style="fill:none;stroke:#bdcfec;stroke-width:0.44px;"/><rect x="107.501" y="70.818" width="23.702" height="8.49" style="fill:none;stroke:#bdcfec;stroke-width:0.44px;"/><rect x="131.203" y="70.818" width="23.702" height="8.49" style="fill:none;stroke:#bdcfec;stroke-width:0.44px;"/><rect x="154.906" y="70.818" width="23.702" height="8.49" style="fill:none;stroke:#bdcfec;stroke-width:0.44px;"/><rect x="178.608" y="70.818" width="23.702" height="8.49" style="fill:none;stroke:#bdcfec;stroke-width:0.44px;"/><rect x="202.31" y="70.818" width="23.702" height="8.49" style="fill:none;stroke:#bdcfec;stroke-width:0.44px;"/><rect x="226.013" y="70.818" width="23.702" height="8.49" style="fill:none;stroke:#bdcfec;stroke-width:0.44px;"/><rect x="36.394" y="70.818" width="23.702" height="8.49" style="fill:none;stroke:#bdcfec;stroke-width:0.44px;"/><rect x="12.691" y="87.696" width="23.702" height="8.49" style="fill:none;stroke:#bdcfec;stroke-width:0.44px;"/><rect x="60.096" y="87.696" width="23.702" height="8.49" style="fill:none;stroke:#bdcfec;stroke-width:0.44px;"/><rect x="83.798" y="87.696" width="23.702" height="8.49" style="fill:none;stroke:#bdcfec;stroke-width:0.44px;"/><rect x="107.501" y="87.696" width="23.702" height="8.49" style="fill:none;stroke:#bdcfec;stroke-width:0.44px;"/><rect x="131.203" y="87.696" width="23.702" height="8.49" style="fill:none;stroke:#bdcfec;stroke-width:0.44px;"/><rect x="154.906" y="87.696" width="23.702" height="8.49" style="fill:none;stroke:#bdcfec;stroke-width:0.44px;"/><rect x="178.608" y="87.696" width="23.702" height="8.49" style="fill:none;stroke:#bdcfec;stroke-width:0.44px;"/><rect x="202.31" y="87.696" width="23.702" height="8.49" style="fill:none;stroke:#bdcfec;stroke-width:0.44px;"/><rect x="226.013" y="87.696" width="23.702" height="8.49" style="fill:none;stroke:#bdcfec;stroke-width:0.44px;"/><rect x="36.394" y="87.696" width="23.702" height="8.49" style="fill:none;stroke:#bdcfec;stroke-width:0.44px;"/><rect x="12.691" y="104.575" width="23.702" height="8.49" style="fill:none;stroke:#bdcfec;stroke-width:0.44px;"/><rect x="60.096" y="104.575" width="23.702" height="8.49" style="fill:none;stroke:#bdcfec;stroke-width:0.44px;"/><rect x="83.798" y="104.575" width="23.702" height="8.49" style="fill:none;stroke:#bdcfec;stroke-width:0.44px;"/><rect x="107.501" y="104.575" width="23.702" height="8.49" style="fill:none;stroke:#bdcfec;stroke-width:0.44px;"/><rect x="131.203" y="104.575" width="23.702" height="8.49" style="fill:none;stroke:#bdcfec;stroke-width:0.44px;"/><rect x="154.906" y="104.575" width="23.702" height="8.49" style="fill:none;stroke:#bdcfec;stroke-width:0.44px;"/><rect x="178.608" y="104.575" width="23.702" height="8.49" style="fill:none;stroke:#bdcfec;stroke-width:0.44px;"/><rect x="202.31" y="104.575" width="23.702" height="8.49" style="fill:none;stroke:#bdcfec;stroke-width:0.44px;"/><rect x="226.013" y="104.575" width="23.702" height="8.49" style="fill:none;stroke:#bdcfec;stroke-width:0.44px;"/><rect x="36.394" y="104.575" width="23.702" height="8.49" style="fill:none;stroke:#bdcfec;stroke-width:0.44px;"/><rect x="12.691" y="121.454" width="23.702" height="8.49" style="fill:none;stroke:#bdcfec;stroke-width:0.44px;"/><rect x="60.096" y="121.454" width="23.702" height="8.49" style="fill:none;stroke:#bdcfec;stroke-width:0.44px;"/><rect x="83.798" y="121.454" width="23.702" height="8.49" style="fill:none;stroke:#bdcfec;stroke-width:0.44px;"/><rect x="107.501" y="121.454" width="23.702" height="8.49" style="fill:none;stroke:#bdcfec;stroke-width:0.44px;"/><rect x="131.203" y="121.454" width="23.702" height="8.49" style="fill:none;stroke:#bdcfec;stroke-width:0.44px;"/><rect x="154.906" y="121.454" width="23.702" height="8.49" style="fill:none;stroke:#bdcfec;stroke-width:0.44px;"/><rect x="178.608" y="121.454" width="23.702" height="8.49" style="fill:none;stroke:#bdcfec;stroke-width:0.44px;"/><rect x="202.31" y="121.454" width="23.702" height="8.49" style="fill:none;stroke:#bdcfec;stroke-width:0.44px;"/><rect x="226.013" y="121.454" width="23.702" height="8.49" style="fill:none;stroke:#bdcfec;stroke-width:0.44px;"/><rect x="36.394" y="121.454" width="23.702" height="8.49" style="fill:none;stroke:#bdcfec;stroke-width:0.44px;"/><rect x="12.691" y="138.332" width="23.702" height="8.49" style="fill:none;stroke:#bdcfec;stroke-width:0.44px;"/><rect x="60.096" y="138.332" width="23.702" height="8.49" style="fill:none;stroke:#bdcfec;stroke-width:0.44px;"/><rect x="83.798" y="138.332" width="23.702" height="8.49" style="fill:none;stroke:#bdcfec;stroke-width:0.44px;"/><rect x="107.501" y="138.332" width="23.702" height="8.49" style="fill:none;stroke:#bdcfec;stroke-width:0.44px;"/><rect x="131.203" y="138.332" width="23.702" height="8.49" style="fill:none;stroke:#bdcfec;stroke-width:0.44px;"/><rect x="154.906" y="138.332" width="23.702" height="8.49" style="fill:none;stroke:#bdcfec;stroke-width:0.44px;"/><rect x="178.608" y="138.332" width="23.702" height="8.49" style="fill:none;stroke:#bdcfec;stroke-width:0.44px;"/><rect x="202.31" y="138.332" width="23.702" height="8.49" style="fill:none;stroke:#bdcfec;stroke-width:0.44px;"/><rect x="226.013" y="138.332" width="23.702" height="8.49" style="fill:none;stroke:#bdcfec;stroke-width:0.44px;"/><rect x="36.394" y="138.332" width="23.702" height="8.49" style="fill:none;stroke:#bdcfec;stroke-width:0.44px;"/><rect x="12.691" y="155.211" width="23.702" height="8.49" style="fill:none;stroke:#bdcfec;stroke-width:0.44px;"/><rect x="60.096" y="155.211" width="23.702" height="8.49" style="fill:none;stroke:#bdcfec;stroke-width:0.44px;"/><rect x="83.798" y="155.211" width="23.702" height="8.49" style="fill:none;stroke:#bdcfec;stroke-width:0.44px;"/><rect x="107.501" y="155.211" width="23.702" height="8.49" style="fill:none;stroke:#bdcfec;stroke-width:0.44px;"/><rect x="131.203" y="155.211" width="23.702" height="8.49" style="fill:none;stroke:#bdcfec;stroke-width:0.44px;"/><rect x="154.906" y="155.211" width="23.702" height="8.49" style="fill:none;stroke:#bdcfec;stroke-width:0.44px;"/><rect x="178.608" y="155.211" width="23.702" height="8.49" style="fill:none;stroke:#bdcfec;stroke-width:0.44px;"/><rect x="202.31" y="155.211" width="23.702" height="8.49" style="fill:none;stroke:#bdcfec;stroke-width:0.44px;"/><rect x="226.013" y="155.211" width="23.702" height="8.49" style="fill:none;stroke:#bdcfec;stroke-width:0.44px;"/><rect x="36.394" y="155.211" width="23.702" height="8.49" style="fill:none;stroke:#bdcfec;stroke-width:0.44px;"/><rect x="12.691" y="172.09" width="23.702" height="8.49" style="fill:none;stroke:#bdcfec;stroke-width:0.44px;"/><rect x="60.096" y="172.09" width="23.702" height="8.49" style="fill:none;stroke:#bdcfec;stroke-width:0.44px;"/><rect x="83.798" y="172.09" width="23.702" height="8.49" style="fill:none;stroke:#bdcfec;stroke-width:0.44px;"/><rect x="107.501" y="172.09" width="23.702" height="8.49" style="fill:none;stroke:#bdcfec;stroke-width:0.44px;"/><rect x="131.203" y="172.09" width="23.702" height="8.49" style="fill:none;stroke:#bdcfec;stroke-width:0.44px;"/><rect x="154.906" y="172.09" width="23.702" height="8.49" style="fill:none;stroke:#bdcfec;stroke-width:0.44px;"/><rect x="178.608" y="172.09" width="23.702" height="8.49" style="fill:none;stroke:#bdcfec;stroke-width:0.44px;"/><rect x="202.31" y="172.09" width="23.702" height="8.49" style="fill:none;stroke:#bdcfec;stroke-width:0.44px;"/><rect x="226.013" y="172.09" width="23.702" height="8.49" style="fill:none;stroke:#bdcfec;stroke-width:0.44px;"/><rect x="36.394" y="172.09" width="23.702" height="8.49" style="fill:none;stroke:#bdcfec;stroke-width:0.44px;"/></g></g></g><g><clipPath id="_clip2"><path d="M41.411,0.736c-9.432,0 -17.078,7.537 -17.078,16.833c0,9.297 7.646,16.834 17.078,16.834l11.743,0c8.437,0 15.276,6.741 15.276,15.056c0,8.316 -6.839,15.057 -15.276,15.057l-20.192,0c-12.268,0 -22.214,9.802 -22.214,21.894c0,12.091 9.946,21.893 22.214,21.893l4.612,0c12.823,0 23.218,10.246 23.218,22.884c0,12.638 -10.395,22.884 -23.218,22.884l-17.615,0c-10.834,0 -19.617,8.656 -19.617,19.335c0,10.678 8.783,19.335 19.617,19.335l210.732,0l-0.001,-0.037c14.096,-0.715 25.303,-12.207 25.303,-26.279c0,-14.534 -11.953,-26.316 -26.699,-26.316l-15.56,0c-12.053,0 -21.825,-9.631 -21.825,-21.51c0,-11.881 9.772,-21.511 21.825,-21.511l7.037,0c13.344,0 24.161,-10.663 24.161,-23.815c0,-13.152 -10.817,-23.814 -24.161,-23.814l-25.042,0c-4.219,0 -7.638,-3.37 -7.638,-7.528c0,-4.158 3.419,-7.528 7.638,-7.528l6.865,0c9.432,0 17.079,-7.537 17.079,-16.834c0,-9.296 -7.647,-16.833 -17.079,-16.833l-161.183,0Z" clip-rule="nonzero"/></clipPath><g clip-path="url(#_clip2)"><path d="M110.594,55.418c-0.02,-20.239 -16.671,-36.64 -37.209,-36.64c-20.551,0 -37.21,16.421 -37.21,36.676l0.073,0l0,85.552l74.347,0l0,-85.588l-0.001,0Z" style="fill:#e7f0ff;fill-rule:nonzero;"/><path d="M110.595,55.418l-0.001,0c-0.008,-8.303 -2.819,-15.956 -7.544,-22.099c-2.188,1.823 -4.082,4.003 -6.052,6.07c-2.565,2.692 -5.425,5.296 -8.972,6.486c-8.44,2.832 -19.022,-2.8 -26.098,2.546c-5.98,4.518 -5.894,14.737 -12.696,17.928c-2.454,1.151 -5.287,1.071 -7.987,1.376c-1.697,0.192 -3.372,0.553 -4.997,1.067l0,30.25c2.394,-1.389 4.996,-2.431 7.705,-3.038c3.135,-0.702 6.473,-0.884 9.273,-2.439c6.743,-3.746 7.144,-13.132 11.581,-19.382c3.492,-4.918 9.412,-7.662 15.355,-8.972c5.943,-1.31 12.086,-1.396 18.121,-2.196c4.231,-0.56 8.521,-1.531 12.312,-3.393l0,-4.204Z" style="fill:#f4f9ff;fill-rule:nonzero;"/><path d="M110.595,75.103c-1.764,0.154 -3.54,0.249 -5.295,0.37c-5.296,0.365 -10.864,1.125 -15.06,4.331c-10.884,8.319 -6.609,27.639 -17.524,35.919c-2.932,2.225 -6.582,3.285 -9.847,5.001c-7.584,3.986 -12.56,11.926 -13.679,20.282l21.267,0c2.275,-7.068 7.139,-13.355 13.727,-16.964c4.622,-2.531 10.186,-4.048 13.228,-8.31c4.68,-6.555 1.244,-16.674 6.47,-22.816c1.769,-2.077 4.118,-3.247 6.713,-4.059l0,-13.754Z" style="fill:#f4f9ff;fill-rule:nonzero;"/><path d="M74.599,56.507l34.891,0l0,26.322l-34.891,0l0,-26.322Zm34.891,54.823l-34.891,0l0,-26.237l34.891,0l0,26.237Zm0,28.586l-34.891,0l0,-26.322l34.891,0l0,26.322Zm-72.137,-26.322l35.036,0l0,26.322l-35.036,0l0,-26.322Zm0,-28.501l35.036,0l0,26.237l-35.036,0l0,-26.237Zm0,-28.586l35.036,0l0,26.322l-35.036,0l0,-26.322Zm35.036,-36.615l0,34.437l-35.08,0c0.596,-18.777 16.012,-33.924 35.08,-34.437m37.072,34.437l-34.862,0l0,-34.431c18.968,0.622 34.268,15.726 34.862,34.431m2.21,0c-0.607,-20.304 -17.541,-36.64 -38.286,-36.64c-21.127,0 -38.314,16.941 -38.314,37.765l0.072,0l0,86.641l76.557,0l0,-87.766l-0.029,0Z" style="fill:#cadcf5;fill-rule:nonzero;"/></g></g><path d="M84.949,130.744l-3.212,-18.086c-0.179,-1.004 -1.158,-1.681 -2.176,-1.505c-1.019,0.176 -1.707,1.14 -1.528,2.145l0.945,5.319l-3.867,-10.49c-0.353,-0.959 -1.437,-1.458 -2.409,-1.109c-0.972,0.347 -1.478,1.416 -1.125,2.374l-0.712,-1.931c-0.353,-0.958 -1.437,-1.457 -2.409,-1.109c-0.971,0.348 -1.478,1.417 -1.125,2.374l0.712,1.931c-0.353,-0.957 -1.437,-1.456 -2.409,-1.109c-0.972,0.349 -1.478,1.417 -1.125,2.375l0.712,1.931c-0.353,-0.957 -1.438,-1.457 -2.409,-1.109c-0.972,0.348 -1.478,1.417 -1.125,2.375l8.688,23.567c0.353,0.958 1.437,1.457 2.408,1.109c0.973,-0.349 1.479,-1.417 1.126,-2.375l-0.712,-1.931c0.353,0.958 1.437,1.457 2.409,1.109c0.972,-0.348 1.478,-1.417 1.125,-2.374l-0.712,-1.931c0.353,0.957 1.437,1.457 2.409,1.108c0.972,-0.348 1.478,-1.416 1.125,-2.374l0.712,1.931c0.353,0.958 1.437,1.457 2.409,1.109c0.615,-0.22 1.041,-0.73 1.183,-1.316c0.769,-0.338 1.243,-1.157 1.092,-2.008" style="fill:#fdc0b1;fill-rule:nonzero;"/><path d="M84.949,130.744l-3.212,-18.086c-0.179,-1.004 -1.158,-1.681 -2.176,-1.505c-1.019,0.176 -1.707,1.14 -1.528,2.145l0.945,5.319l-3.867,-10.49c-0.353,-0.959 -1.437,-1.458 -2.409,-1.109c-0.972,0.347 -1.478,1.416 -1.125,2.374l-0.712,-1.931c-0.353,-0.958 -1.437,-1.457 -2.409,-1.109c-0.971,0.348 -1.478,1.417 -1.125,2.374l3.866,10.488l-3.154,-8.557c-0.353,-0.957 -1.437,-1.456 -2.409,-1.109c-0.972,0.349 -1.478,1.417 -1.125,2.375l8.688,23.567c0.353,0.958 1.437,1.457 2.409,1.109c0.972,-0.348 1.478,-1.417 1.125,-2.374l-0.712,-1.931c0.353,0.957 1.437,1.457 2.409,1.108c0.972,-0.348 1.478,-1.416 1.125,-2.374l0.712,1.931c0.353,0.958 1.437,1.457 2.409,1.109c0.615,-0.22 1.041,-0.73 1.183,-1.316c0.769,-0.338 1.243,-1.157 1.092,-2.008" style="fill:#fdc0b1;fill-rule:nonzero;"/><path d="M65.221,113.854c-0.353,-0.958 -1.438,-1.457 -2.409,-1.108c-0.972,0.348 -1.478,1.415 -1.125,2.374l8.688,23.567c0.353,0.957 1.437,1.456 2.408,1.109c0.973,-0.349 1.479,-1.417 1.126,-2.375l-8.688,-23.567Z" style="fill:#fdc0b1;fill-rule:nonzero;"/><path d="M75.233,125.649c-0.056,0 -0.109,-0.034 -0.13,-0.09c-0.464,-1.259 -0.403,-2.62 0.171,-3.831c0.574,-1.213 1.594,-2.132 2.871,-2.589c0.072,-0.026 0.151,0.01 0.177,0.081c0.026,0.07 -0.011,0.149 -0.082,0.175c-1.208,0.432 -2.173,1.301 -2.716,2.448c-0.543,1.146 -0.6,2.433 -0.161,3.624c0.026,0.07 -0.011,0.148 -0.083,0.174c-0.016,0.005 -0.032,0.008 -0.047,0.008" style="fill:#ffe4dd;fill-rule:nonzero;"/><path d="M66.999,121.712c-0.057,0 -0.11,-0.034 -0.13,-0.09c-0.026,-0.07 0.011,-0.148 0.083,-0.174l4.836,-1.732c1.482,-0.531 2.249,-2.15 1.711,-3.611c-0.026,-0.071 0.011,-0.148 0.082,-0.175c0.072,-0.025 0.152,0.011 0.177,0.082c0.591,1.602 -0.251,3.378 -1.876,3.96l-4.836,1.732c-0.016,0.006 -0.032,0.008 -0.047,0.008" style="fill:#ffe4dd;fill-rule:nonzero;"/><path d="M146.477,118.735c-0.193,0 -0.381,0.019 -0.571,0.029l0,-0.029l-45.312,0l0,0.01c-4.76,0.023 -9.155,3.127 -10.508,7.853l-1.379,4.818l-2.615,-7.092c-0.28,-0.762 -1.135,-1.156 -1.908,-0.879l-17.786,6.369c-0.773,0.277 -1.172,1.119 -0.891,1.882l13.957,37.861c2.057,5.58 8.371,8.487 14.032,6.459c0.046,-0.016 0.088,-0.038 0.133,-0.055c3.37,-1.078 6.159,-3.737 7.188,-7.331l2.782,-9.724l0,5.891l31.927,-2.973l0,5.288c0,5.937 4.928,10.794 10.951,10.794c6.023,0 10.951,-4.857 10.951,-10.794l0,-37.583c0,-5.936 -4.928,-10.794 -10.951,-10.794" style="fill:#60aaba;fill-rule:nonzero;"/><path d="M157.428,129.529c0,-5.936 -4.928,-10.793 -10.951,-10.793c-0.193,0 -0.381,0.018 -0.571,0.028l0,-0.028l-21.258,0c7.441,7.08 12.318,16.789 13.315,26.948c0.619,6.305 -0.263,12.722 -2.438,18.682l0,2.746c0,5.937 4.928,10.794 10.952,10.794c6.023,0 10.951,-4.857 10.951,-10.794l0,-37.583Z" style="fill:#4f9aa7;fill-rule:nonzero;"/><rect x="147.562" y="76.766" width="33.508" height="33.026" style="fill:#bdcfec;"/><rect x="149.772" y="78.945" width="29.087" height="28.67" style="fill:#e7f0ff;"/><path d="M181.069,76.767l-2.21,2.178l0,28.669l2.21,2.178l0,-33.025Z" style="fill:#b0c6e4;fill-rule:nonzero;"/><path d="M147.561,76.767l2.21,2.178l0,28.669l-2.21,2.178l0,-33.025Z" style="fill:#b0c6e4;fill-rule:nonzero;"/><path d="M164.957,82.662c1.227,0.494 2.709,0.526 3.653,1.442c1.156,1.121 0.938,3.039 0.238,4.48c-0.699,1.441 -1.79,2.71 -2.219,4.25c-0.493,1.77 0.033,3.812 1.416,5.042c1.382,1.23 3.587,1.517 5.185,0.573c1.524,-0.901 2.543,-2.795 4.315,-2.929c0.459,-0.034 0.892,0.059 1.314,0.217l0,-16.792l-16.831,0c0.329,1.612 1.36,3.085 2.929,3.717" style="fill:#d7e6f8;fill-rule:nonzero;"/><path d="M149.771,104.168c1.245,0.755 2.667,1.165 4.121,1.019c1.548,-0.154 3.127,-1.067 3.564,-2.54c0.592,-1.995 -1.044,-4.159 -0.412,-6.142c0.44,-1.38 1.823,-2.203 2.982,-3.091c1.161,-0.888 2.269,-2.272 1.824,-3.651c-0.424,-1.316 -1.997,-1.846 -2.962,-2.846c-2.075,-2.124 -1.055,-5.289 -1.342,-7.972l-7.775,0l0,25.223Z" style="fill:#d7e6f8;fill-rule:nonzero;"/><path d="M178.859,107.615l0,-7.367c-0.842,-0.169 -1.71,-0.15 -2.549,0.125c-1.321,0.432 -2.38,1.392 -3.534,2.157c-1.154,0.765 -2.589,1.363 -3.913,0.942c-2.022,-0.642 -3.015,-3.4 -5.138,-3.491c-1.793,-0.077 -2.982,1.879 -3.23,3.631c-0.213,1.499 -0.217,2.814 -0.536,4.003l18.9,0Z" style="fill:#d7e6f8;fill-rule:nonzero;"/><rect x="152.614" y="31.727" width="25.347" height="37.984" style="fill:#bdcfec;"/><rect x="154.825" y="33.906" width="20.927" height="33.627" style="fill:#e7f0ff;"/><path d="M177.961,31.727l-2.21,2.178l0,33.628l2.21,2.178l0,-37.984Z" style="fill:#b0c6e4;fill-rule:nonzero;"/><path d="M152.614,31.727l2.211,2.178l0,33.628l-2.211,2.178l0,-37.984Z" style="fill:#b0c6e4;fill-rule:nonzero;"/><path d="M175.751,45.021c-0.733,-0.109 -1.482,-0.114 -2.22,0.017c-3.383,0.6 -6.066,3.978 -5.666,7.342c0.141,1.197 0.62,2.328 0.873,3.506c0.252,1.178 0.245,2.504 -0.485,3.47c-1.044,1.382 -3.131,1.489 -4.815,1.031c-1.685,-0.458 -3.26,-1.344 -5,-1.513c-1.415,-0.137 -2.58,0.242 -3.613,0.88l0,7.778l20.926,0l0,-22.511Z" style="fill:#d7e6f8;fill-rule:nonzero;"/><path d="M154.825,51.233c0.571,-0.201 1.166,-0.351 1.751,-0.448c1.948,-0.324 4.015,-0.348 5.742,-1.293c0.962,-0.526 1.838,-1.57 1.509,-2.604c-0.473,-1.487 -3.01,-1.754 -3.126,-3.309c-0.046,-0.607 0.346,-1.172 0.824,-1.557c0.478,-0.385 1.049,-0.641 1.556,-0.989c2.164,-1.483 2.792,-4.751 1.329,-6.91c-0.051,-0.077 -0.111,-0.146 -0.166,-0.218l-9.419,0l0,17.328Z" style="fill:#d7e6f8;fill-rule:nonzero;"/><path d="M168.383,34.412c0.628,0.972 0.755,2.243 0.332,3.317c-0.25,0.635 -0.674,1.192 -0.941,1.82c-0.267,0.629 -0.351,1.404 0.057,1.954c0.536,0.718 1.681,0.707 2.461,0.255c0.78,-0.45 1.308,-1.214 1.897,-1.891c0.589,-0.677 1.34,-1.32 2.243,-1.37c0.451,-0.024 0.887,0.103 1.319,0.262l0,-4.854l-7.778,0c0.146,0.151 0.286,0.314 0.41,0.507" style="fill:#d7e6f8;fill-rule:nonzero;"/><rect x="187.222" y="59.973" width="29.202" height="19.987" style="fill:#bdcfec;"/><rect x="189.432" y="62.151" width="24.782" height="15.63" style="fill:#e7f0ff;"/><path d="M216.424,59.973l-2.21,2.178l0,15.631l2.21,2.178l0,-19.987Z" style="fill:#b0c6e4;fill-rule:nonzero;"/><path d="M187.222,59.973l2.209,2.178l0,15.631l-2.209,2.178l0,-19.987Z" style="fill:#b0c6e4;fill-rule:nonzero;"/><path d="M189.431,62.151l0,8.519c1.099,0.097 2.298,-0.256 3.558,-1.246c1.011,-0.793 1.703,-1.956 2.803,-2.625c1.851,-1.129 4.229,-0.548 6.355,-0.087c2.127,0.461 4.696,0.631 6.132,-0.982c0.828,-0.93 1.045,-2.228 1.23,-3.453c0.006,-0.041 0.012,-0.084 0.018,-0.126l-20.096,0Z" style="fill:#d7e6f8;fill-rule:nonzero;"/><path d="M207.734,72.606c-1.613,-0.199 -3.259,0.992 -4.794,0.465c-1.759,-0.605 -2.249,-3.087 -4.002,-3.709c-1.079,-0.382 -2.29,0.096 -3.199,0.786c-0.909,0.69 -1.644,1.588 -2.581,2.239c-1.08,0.75 -2.41,1.082 -3.727,1.031l0,4.363l20.76,0c0.22,-0.57 0.343,-1.17 0.329,-1.784c-0.037,-1.585 -1.19,-3.194 -2.786,-3.391" style="fill:#d7e6f8;fill-rule:nonzero;"/><path d="M210.441,65.667c-0.384,0.406 -0.871,0.779 -0.989,1.323c-0.242,1.116 1.122,1.825 1.884,2.684c1.154,1.3 0.965,3.241 0.905,4.968c-0.037,1.049 0.087,2.225 0.55,3.139l1.423,0l0,-15.63l-2.517,0c-0.153,1.247 -0.333,2.543 -1.256,3.516" style="fill:#d7e6f8;fill-rule:nonzero;"/><path d="M146.922,63.695c-3.791,-5.707 -15.205,-11.963 -21.589,-7.603c-6.384,-4.36 -17.815,1.896 -21.606,7.603c-3.791,5.708 -7.183,23.677 -6.764,39.619c0.42,15.931 24.489,9.201 28.362,9.192c3.872,0.009 27.941,6.739 28.36,-9.192c0.42,-15.942 -2.972,-33.911 -6.763,-39.619" style="fill:#2a2e4e;fill-rule:nonzero;"/><path d="M132.341,54.766c1.583,0.992 3.096,2.098 4.513,3.358c8.987,7.992 12.689,21.682 9.011,33.314c-3.679,11.631 -14.524,20.527 -26.392,21.649l0.802,0.092c2.353,-0.341 4.194,-0.671 5.049,-0.673c3.873,0.009 27.942,6.739 28.362,-9.192c0.419,-15.942 -2.973,-33.911 -6.764,-39.619c-2.616,-3.938 -8.863,-8.137 -14.581,-8.929" style="fill:#1b263d;fill-rule:nonzero;"/><path d="M115.952,92.646l-0.864,26.089c-0.139,5.478 4.329,9.993 9.888,9.993l0.005,0c5.56,0 10.028,-4.515 9.889,-9.993l-0.865,-26.089l-18.053,0Z" style="fill:#fdc0b1;fill-rule:nonzero;"/><path d="M115.498,106.347l-0.18,5.457c11.869,1.2 17.41,4.307 19.543,7.228c0.001,-0.099 0.011,-0.196 0.009,-0.297l-0.411,-12.388l-18.961,0Z" style="fill:#ebaea2;fill-rule:nonzero;"/><path d="M105.392,83.812c0,2.649 -2.178,4.796 -4.866,4.796c-2.687,0 -4.866,-2.147 -4.866,-4.796c0,-2.649 2.179,-4.796 4.866,-4.796c2.688,0 4.866,2.147 4.866,4.796" style="fill:#fdc0b1;fill-rule:nonzero;"/><path d="M98.613,85.593c-0.059,0 -0.118,-0.025 -0.159,-0.074c-0.405,-0.477 -0.628,-1.083 -0.628,-1.707c0,-1.177 0.766,-2.2 1.906,-2.545c0.112,-0.033 0.226,0.028 0.259,0.135c0.034,0.108 -0.028,0.222 -0.137,0.256c-0.965,0.292 -1.614,1.157 -1.614,2.154c0,0.528 0.189,1.041 0.532,1.446c0.073,0.086 0.061,0.215 -0.026,0.287c-0.039,0.033 -0.086,0.048 -0.133,0.048" style="fill:#ebaea2;fill-rule:nonzero;"/><path d="M145.255,83.812c0,2.649 2.178,4.796 4.866,4.796c2.687,0 4.865,-2.147 4.865,-4.796c0,-2.649 -2.178,-4.796 -4.865,-4.796c-2.688,0 -4.866,2.147 -4.866,4.796" style="fill:#ebaea2;fill-rule:nonzero;"/><path d="M152.034,85.593c-0.047,0 -0.095,-0.015 -0.133,-0.048c-0.088,-0.072 -0.1,-0.201 -0.026,-0.287c0.343,-0.405 0.532,-0.918 0.532,-1.446c0,-0.996 -0.649,-1.862 -1.614,-2.154c-0.11,-0.034 -0.171,-0.148 -0.137,-0.256c0.033,-0.108 0.147,-0.168 0.259,-0.135c1.14,0.345 1.906,1.368 1.906,2.545c0,0.624 -0.223,1.23 -0.629,1.707c-0.04,0.049 -0.099,0.074 -0.158,0.074" style="fill:#d5968d;fill-rule:nonzero;"/><path d="M149.411,75.18l0,20.511c0,0 4.516,-11.327 0,-20.511" style="fill:#2a2e4e;fill-rule:nonzero;"/><path d="M101.24,75.18l0,20.511c0,0 -4.516,-11.327 0,-20.511" style="fill:#2a2e4e;fill-rule:nonzero;"/><path d="M137.41,51.73c0,6.767 -5.566,12.252 -12.431,12.252c-6.866,0 -12.431,-5.485 -12.431,-12.252c0,-6.766 5.565,-12.252 12.431,-12.252c6.865,0 12.431,5.486 12.431,12.252" style="fill:#2a2e4e;fill-rule:nonzero;"/><path d="M125.326,111.188l-0.003,0c-13.637,0 -24.795,-10.997 -24.795,-24.439l0,-5.797c0,-13.441 11.158,-24.438 24.795,-24.438l0.003,0c13.637,0 24.794,10.997 24.794,24.438l0,5.797c0,13.442 -11.157,24.439 -24.794,24.439" style="fill:#fdc0b1;fill-rule:nonzero;"/><path d="M133.291,83.565c0,1.205 0.666,2.182 1.487,2.182c0.821,0 1.487,-0.977 1.487,-2.182c0,-1.204 -0.666,-2.181 -1.487,-2.181c-0.821,0 -1.487,0.977 -1.487,2.181" style="fill:#2a2e4e;fill-rule:nonzero;"/><path d="M129.032,100.239c0.47,0 0.841,0.42 0.75,0.874c-0.413,2.055 -2.251,3.605 -4.457,3.605c-2.206,0 -4.045,-1.55 -4.458,-3.605c-0.091,-0.454 0.28,-0.874 0.75,-0.874l7.415,0Z" style="fill:#fff;fill-rule:nonzero;"/><path d="M126.27,93.167l-0.905,0c-0.558,0 -1.072,-0.252 -1.409,-0.691c-0.336,-0.438 -0.442,-0.994 -0.29,-1.523l0.825,-2.877c0.042,-0.145 0.195,-0.229 0.341,-0.188c0.147,0.04 0.232,0.191 0.191,0.336l-0.826,2.877c-0.104,0.364 -0.031,0.745 0.2,1.047c0.231,0.302 0.584,0.474 0.968,0.474l0.905,0c0.152,0 0.276,0.122 0.276,0.273c0,0.15 -0.124,0.272 -0.276,0.272" style="fill:#ffe4dd;fill-rule:nonzero;"/><path d="M141.781,91.892c0,1.39 -1.575,2.517 -3.517,2.517c-1.943,0 -3.518,-1.127 -3.518,-2.517c0,-1.39 1.575,-2.517 3.518,-2.517c1.942,0 3.517,1.127 3.517,2.517" style="fill:#ffa593;fill-rule:nonzero;"/><path d="M115.903,91.892c0,1.39 -1.575,2.517 -3.518,2.517c-1.942,0 -3.517,-1.127 -3.517,-2.517c0,-1.39 1.575,-2.517 3.517,-2.517c1.943,0 3.518,1.127 3.518,2.517" style="fill:#ffa593;fill-rule:nonzero;"/><path d="M117.358,83.565c0,1.205 -0.666,2.182 -1.487,2.182c-0.821,0 -1.487,-0.977 -1.487,-2.182c0,-1.204 0.666,-2.181 1.487,-2.181c0.821,0 1.487,0.977 1.487,2.181" style="fill:#2a2e4e;fill-rule:nonzero;"/><path d="M138.743,82.634c-0.097,0 -0.184,-0.067 -0.203,-0.164c-0.337,-1.647 -1.986,-2.971 -3.689,-2.971c-0.015,0 -0.031,0 -0.046,0c-0.113,0 -0.206,-0.09 -0.207,-0.201c-0.002,-0.113 0.09,-0.206 0.204,-0.207c1.948,-0.025 3.761,1.423 4.144,3.299c0.022,0.11 -0.05,0.218 -0.162,0.24c-0.014,0.003 -0.028,0.004 -0.041,0.004" style="fill:#2a2e4e;fill-rule:nonzero;"/><path d="M111.907,82.634c-0.014,0 -0.028,-0.001 -0.042,-0.004c-0.112,-0.022 -0.184,-0.13 -0.162,-0.24c0.38,-1.859 2.172,-3.3 4.094,-3.3c0.017,0 0.034,0 0.05,0.001c0.115,0.001 0.206,0.094 0.205,0.207c-0.002,0.111 -0.094,0.201 -0.207,0.201c-0.014,0 -0.031,0 -0.047,0c-1.703,0 -3.352,1.324 -3.689,2.971c-0.02,0.097 -0.106,0.164 -0.202,0.164" style="fill:#2a2e4e;fill-rule:nonzero;"/><path d="M164.762,185.481l-80.633,0c-0.955,0 -1.729,-0.763 -1.729,-1.705l0,-0.43c0,-0.941 0.774,-1.705 1.729,-1.705l80.633,0c0.955,0 1.729,0.764 1.729,1.705l0,0.43c0,0.942 -0.774,1.705 -1.729,1.705" style="fill:#171d38;fill-rule:nonzero;"/><path d="M230.69,192.741l-210.731,0c-1.645,0 -2.98,-1.315 -2.98,-2.937l0,-1.379c0,-1.622 1.335,-2.936 2.98,-2.936l210.731,0c1.646,0 2.98,1.314 2.98,2.936l0,1.379c0,1.622 -1.334,2.937 -2.98,2.937" style="fill:#516596;fill-rule:nonzero;"/><path d="M233.669,189.804l0,-1.379c0,-1.622 -1.333,-2.937 -2.979,-2.937l-87.853,0c2.846,1.718 5.462,3.807 7.733,6.218c0.319,0.338 0.63,0.684 0.935,1.035l79.185,0c1.646,0 2.979,-1.315 2.979,-2.937" style="fill:#3f597e;fill-rule:nonzero;"/><path d="M206.222,181.793c2.18,-3.13 1.854,-7.726 -0.745,-10.526c-0.997,-1.075 -2.257,-1.876 -3.365,-2.839c-3.623,-3.146 -5.517,-8.12 -4.889,-12.838c0.576,-4.318 3.063,-8.148 4.247,-12.344c0.815,-2.886 0.753,-6.339 -0.648,-8.858c-0.666,-1.198 0.585,-2.526 1.88,-2.039c4.179,1.573 7.263,5.602 6.843,10.181c-0.393,4.274 -3.353,8.055 -3.495,12.345c-0.124,3.771 1.939,7.233 3.902,10.473c1.963,3.24 3.96,6.763 3.684,10.526c-0.275,3.764 -3.748,7.009 -7.414,5.919" style="fill:#627fb5;fill-rule:nonzero;"/><path d="M210.099,173.495c-0.008,-0.016 -0.015,-0.03 -0.022,-0.046c-0.356,-1.042 -0.857,-2.137 -1.513,-3.297c-0.643,-1.296 0.39,-3.45 1.302,-4.946c-0.072,-0.119 -0.145,-0.239 -0.217,-0.359c-0.757,1.216 -1.642,2.935 -1.646,4.349c-0.255,-0.424 -0.513,-0.845 -0.768,-1.257c-1.04,-1.685 -2.115,-3.428 -2.779,-5.306c-0.452,-1.374 0.927,-3.274 2.003,-4.488c-0.039,-0.145 -0.078,-0.29 -0.112,-0.436c-0.843,0.925 -1.952,2.338 -2.262,3.671c-0.254,-0.992 -0.411,-1.999 -0.49,-3.007c-0.001,-0.022 -0.003,-0.042 -0.005,-0.062c-0.063,-0.838 -0.069,-1.674 -0.047,-2.502c-0.036,-1.469 1.803,-3.667 3.493,-5.376c0.101,-0.278 0.204,-0.556 0.312,-0.833c-1.352,1.311 -2.965,3.063 -3.728,4.607c0.072,-0.993 0.177,-1.966 0.29,-2.899c0,-0.001 0,-0.003 0.001,-0.004l0,-0.001c0.06,-0.496 0.124,-0.993 0.188,-1.491c0.086,-0.678 0.171,-1.361 0.251,-2.047l0.001,0c0,-0.013 0.003,-0.029 0.004,-0.042c0.034,-0.294 0.065,-0.589 0.096,-0.884c0.506,-2.956 2.906,-6.82 4.316,-8.893c-0.06,-0.133 -0.121,-0.266 -0.186,-0.395c-1.126,1.633 -2.984,4.545 -3.958,7.256c0.003,-0.054 0.004,-0.107 0.007,-0.161l0.001,0c0.002,-0.018 0,-0.037 0,-0.056c0.086,-1.603 0.068,-3.208 -0.164,-4.798c-0.063,-0.429 -0.147,-0.848 -0.241,-1.26l0.002,-0.001c-0.235,-1.648 0.044,-3.816 0.304,-5.287c-0.115,-0.07 -0.227,-0.142 -0.345,-0.207c-0.192,1.053 -0.403,2.504 -0.42,3.891c-0.589,-1.696 -1.463,-3.173 -2.548,-4.363c-0.097,0.074 -0.182,0.159 -0.257,0.252c1.608,1.766 2.726,4.213 3.137,7.027c0.133,0.919 0.19,1.844 0.202,2.773c-0.494,-1.325 -1.444,-2.617 -2.319,-3.622c0.006,0.197 0.01,0.395 0.007,0.594c1.183,1.426 2.388,3.305 2.272,4.959c-0.04,0.748 -0.103,1.495 -0.18,2.241c-0.05,0.302 -0.084,0.595 -0.095,0.878c-0.077,0.674 -0.161,1.346 -0.246,2.014c-0.467,-1.751 -1.758,-3.517 -2.817,-4.745c-0.049,0.135 -0.099,0.27 -0.149,0.405c1.331,1.574 2.954,3.934 2.766,5.929c-0.175,1.443 -0.33,2.981 -0.37,4.551c0,0.001 -0.001,0.003 -0.001,0.004l0.001,0c-0.007,0.281 -0.012,0.565 -0.011,0.848c-0.939,-2.216 -3.135,-4.569 -4.578,-5.966c-0.05,0.128 -0.098,0.255 -0.146,0.383c1.783,1.748 4.596,4.86 4.784,7.253c0.003,0.041 0.008,0.081 0.011,0.122c0.003,0.055 0.017,0.112 0.016,0.166l0.003,0c0.123,1.383 0.378,2.766 0.852,4.11c0,0.002 0,0.003 0,0.005l0.001,0c0,0.001 0,0.002 0.001,0.004c0.232,0.657 0.524,1.291 0.834,1.916c-2.186,-2.284 -6.028,-5.118 -7.805,-6.387c0.011,0.163 0.03,0.326 0.046,0.489c2.335,1.684 7.369,5.462 8.691,7.633l0.006,-0.004c0.342,0.585 0.692,1.164 1.042,1.732c0.442,0.716 0.899,1.455 1.317,2.195c0.247,0.437 0.468,0.863 0.671,1.281c-1.936,-2.212 -5.011,-3.077 -7.05,-3.415c0.086,0.078 0.169,0.161 0.257,0.237c0.092,0.08 0.188,0.154 0.282,0.231c2.462,0.494 5.965,1.749 7.343,4.94c0.592,1.746 0.753,3.326 0.489,4.778l0.366,0.064c0.275,-1.509 0.111,-3.144 -0.497,-4.943l0.004,-0.002Z" style="fill:#466796;fill-rule:nonzero;"/><path d="M224.363,149.422c-2.458,0.469 -4.35,1.659 -4.608,2.809c-0.899,0.372 -1.829,0.908 -2.697,1.678c0.441,-0.972 0.849,-1.958 1.213,-2.961l0.002,0.001c0.721,-1.724 2.317,-3.881 3.723,-5.598c0.109,0.15 0.237,0.275 0.395,0.361c1.162,0.626 3.213,-0.867 4.584,-3.335c1.369,-2.468 1.538,-4.977 0.376,-5.603c-1.161,-0.626 -3.213,0.866 -4.583,3.335c-0.924,1.664 -1.287,3.332 -1.079,4.443c-0.812,0.975 -1.71,2.119 -2.494,3.275c0.68,-3.086 0.755,-6.647 -0.384,-9.782c0.868,-0.855 0.559,-3.164 -0.78,-5.41c-1.447,-2.425 -3.545,-3.855 -4.686,-3.193c-1.142,0.661 -0.894,3.163 0.553,5.588c1.275,2.139 3.056,3.502 4.243,3.34c0.87,2.443 0.967,5.165 0.616,7.692c-0.422,-1.217 -1.205,-2.355 -2.013,-3.297c0.204,-1.138 -0.663,-2.967 -2.288,-4.567c-2.019,-1.989 -4.415,-2.852 -5.351,-1.928c-0.936,0.923 -0.058,3.283 1.962,5.271c1.994,1.964 4.353,2.827 5.312,1.959c1.283,1.563 2.392,3.594 1.755,5.487c-0.013,0.046 -0.024,0.094 -0.038,0.14c-0.522,1.746 -1.229,3.446 -2.008,5.109c-0.144,-0.78 -0.51,-1.541 -0.957,-2.221c0.461,-1.09 -0.427,-3.133 -2.211,-4.89c-2.019,-1.988 -4.415,-2.851 -5.351,-1.928c-0.935,0.924 -0.057,3.284 1.962,5.272c1.852,1.823 4.017,2.696 5.085,2.118c0.669,1.07 1.163,2.34 0.617,3.415c-0.16,0.324 -0.323,0.645 -0.486,0.965c-0.003,0.005 -0.006,0.009 -0.008,0.014l0,0c-0.21,0.414 -0.421,0.825 -0.631,1.234c-0.699,1.362 -1.414,2.758 -2.074,4.175c-0.188,-0.813 -0.577,-1.641 -1.022,-2.388c0.535,-1.04 0.036,-3.109 -1.316,-5.075c-1.602,-2.328 -3.789,-3.622 -4.885,-2.889c-1.096,0.732 -0.686,3.213 0.917,5.542c1.535,2.231 3.604,3.507 4.739,2.965c0.694,1.212 1.185,2.544 0.826,3.507c-0.479,1.139 -0.94,2.411 -1.314,3.762c-0.202,-0.308 -0.457,-0.608 -0.742,-0.888c0.119,-1.152 -0.895,-2.914 -2.652,-4.385c-2.175,-1.822 -4.633,-2.493 -5.491,-1.498c-0.857,0.994 0.211,3.277 2.385,5.099c2.147,1.798 4.566,2.471 5.453,1.533c0.507,0.546 0.824,1.092 0.707,1.527c-0.774,3.545 -0.823,7.494 1.049,11.018l0.661,-0.34c-1.61,-3.031 -1.718,-6.416 -1.172,-9.559l0.001,0.001c0.323,-1.291 1.5,-1.99 2.634,-2.372c0.489,1.122 2.83,1.623 5.458,1.121c2.802,-0.535 4.869,-2.008 4.617,-3.289c-0.252,-1.281 -2.727,-1.886 -5.529,-1.351c-2.42,0.462 -4.288,1.623 -4.592,2.756c-0.738,0.227 -1.515,0.576 -2.146,1.116c0.379,-1.432 0.862,-2.783 1.366,-3.98c0.173,-0.412 0.358,-0.822 0.545,-1.231c0.592,-1.385 2.015,-2.088 3.37,-2.445c0.32,1.237 2.754,1.814 5.509,1.288c2.803,-0.535 4.87,-2.007 4.618,-3.288c-0.252,-1.282 -2.727,-1.886 -5.53,-1.351c-2.285,0.436 -4.081,1.496 -4.529,2.568c-0.783,0.184 -1.607,0.476 -2.337,0.931c0.378,-0.757 0.76,-1.509 1.14,-2.247c0.212,-0.413 0.424,-0.829 0.637,-1.245c1.162,-2.343 2.836,-3.624 4.427,-4.329c0.519,1.097 2.836,1.585 5.439,1.088c2.802,-0.536 4.869,-2.007 4.618,-3.289c-0.252,-1.281 -2.728,-1.886 -5.53,-1.351" style="fill:#2a2e4e;fill-rule:nonzero;"/><path d="M216.925,135.982c-0.052,0.007 -0.103,-0.021 -0.122,-0.071c-0.626,-1.667 -1.492,-3.233 -2.574,-4.656c-0.036,-0.048 -0.028,-0.117 0.022,-0.153c0.049,-0.036 0.12,-0.028 0.157,0.021c1.095,1.439 1.971,3.024 2.604,4.712c0.022,0.057 -0.007,0.12 -0.065,0.141c-0.008,0.002 -0.015,0.005 -0.022,0.006" style="fill:#627fb5;fill-rule:nonzero;"/><path d="M223.383,143.746c-0.022,0.003 -0.045,0 -0.065,-0.011c-0.056,-0.027 -0.079,-0.093 -0.051,-0.147c0.825,-1.652 1.826,-3.224 2.976,-4.673c0.038,-0.049 0.108,-0.058 0.156,-0.019c0.049,0.038 0.057,0.107 0.02,0.154c-1.141,1.438 -2.134,2.997 -2.953,4.635c-0.016,0.033 -0.048,0.055 -0.083,0.061" style="fill:#627fb5;fill-rule:nonzero;"/><path d="M214.401,141.628c-0.035,0.004 -0.072,-0.007 -0.098,-0.034l-3.623,-3.768c-0.043,-0.045 -0.041,-0.114 0.004,-0.157c0.044,-0.04 0.114,-0.04 0.158,0.005l3.623,3.768c0.042,0.044 0.041,0.114 -0.004,0.156c-0.018,0.017 -0.038,0.026 -0.06,0.03" style="fill:#627fb5;fill-rule:nonzero;"/><path d="M226.677,151.61c0,0.001 -0.001,0.001 -0.001,0.001l-5.135,0.669c-0.061,0.007 -0.118,-0.035 -0.126,-0.094c-0.007,-0.061 0.034,-0.116 0.094,-0.125c0.001,0 0.002,0 0.002,0l5.135,-0.669c0.061,-0.007 0.117,0.035 0.126,0.094c0.008,0.061 -0.035,0.116 -0.095,0.124" style="fill:#627fb5;fill-rule:nonzero;"/><path d="M212.933,150.643c-0.033,0.005 -0.067,-0.005 -0.094,-0.03l-3.619,-3.365c-0.045,-0.042 -0.047,-0.111 -0.004,-0.156c0.042,-0.044 0.112,-0.047 0.158,-0.004l3.619,3.365c0.045,0.042 0.047,0.111 0.004,0.156c-0.017,0.019 -0.041,0.03 -0.064,0.034" style="fill:#627fb5;fill-rule:nonzero;"/><path d="M223.628,159.371c0,0 -0.001,0 -0.001,0l-5.491,0.717c-0.062,0.007 -0.118,-0.035 -0.126,-0.094c-0.008,-0.061 0.034,-0.116 0.094,-0.125l0.002,0l5.491,-0.717c0.062,-0.007 0.117,0.035 0.126,0.094c0.008,0.06 -0.035,0.116 -0.095,0.125" style="fill:#627fb5;fill-rule:nonzero;"/><path d="M208.955,158.015c-0.044,0.007 -0.091,-0.015 -0.114,-0.056c-0.751,-1.344 -1.688,-2.581 -2.785,-3.675c-0.043,-0.044 -0.043,-0.113 0.001,-0.156c0.044,-0.042 0.114,-0.043 0.158,0.001c1.112,1.109 2.061,2.362 2.821,3.723c0.031,0.054 0.011,0.121 -0.043,0.151c-0.012,0.006 -0.025,0.01 -0.038,0.012" style="fill:#627fb5;fill-rule:nonzero;"/><path d="M207.051,166.253c-0.051,0.007 -0.101,-0.02 -0.121,-0.069c-0.762,-1.879 -2.48,-3.323 -4.485,-3.767c-0.06,-0.013 -0.099,-0.072 -0.084,-0.131c0.012,-0.059 0.072,-0.097 0.133,-0.083c2.075,0.459 3.855,1.953 4.643,3.901c0.024,0.055 -0.004,0.119 -0.062,0.142c-0.008,0.003 -0.015,0.006 -0.024,0.007" style="fill:#627fb5;fill-rule:nonzero;"/><path d="M214.464,167.467c-0.053,0.008 -0.105,-0.023 -0.123,-0.074c-0.019,-0.057 0.012,-0.12 0.07,-0.14c1.809,-0.599 3.69,-0.974 5.595,-1.113c0.062,-0.005 0.115,0.041 0.12,0.101c0.004,0.061 -0.046,0.105 -0.103,0.118c-1.887,0.139 -3.751,0.51 -5.54,1.103c-0.006,0.003 -0.013,0.004 -0.019,0.005" style="fill:#627fb5;fill-rule:nonzero;"/><path d="M217.523,174.591l-15.974,0c-0.822,0 -1.49,-0.657 -1.49,-1.468l0,-1.367c0,-0.811 0.668,-1.468 1.49,-1.468l15.974,0c0.823,0 1.49,0.657 1.49,1.468l0,1.367c0,0.811 -0.667,1.468 -1.49,1.468" style="fill:#7cc6d3;fill-rule:nonzero;"/><path d="M215.009,185.524l-10.946,0l-2.235,-10.933l15.416,0l-2.235,10.933Z" style="fill:#7cc6d3;fill-rule:nonzero;"/><path d="M215.565,182.805l1.679,-8.214l-15.416,0l0.226,1.103c2.481,0.188 9.557,1.243 13.511,7.111" style="fill:#6db5bc;fill-rule:nonzero;"/><path d="M153.129,83.425c0,-0.76 -0.624,-1.375 -1.395,-1.375c-0.771,0 -1.396,0.615 -1.396,1.375c0,0.573 0.356,1.063 0.86,1.27l0,2.443c0,0.238 0.198,0.433 0.44,0.433l0.191,0c0.242,0 0.44,-0.195 0.44,-0.433l0,-2.443c0.505,-0.207 0.86,-0.697 0.86,-1.27" style="fill:#fff;fill-rule:nonzero;"/><path d="M129.935,136.974l-0.079,-0.261c3.423,-1.001 6.064,-4.146 6.421,-7.648c0.089,-0.857 0.049,-1.739 0.012,-2.591c-0.031,-0.686 -0.062,-1.396 -0.029,-2.095c0.128,-2.628 1.22,-5.354 3.076,-7.675c1.299,-1.626 2.914,-3.009 4.475,-4.347c1.757,-1.505 3.573,-3.062 4.924,-4.956c1.939,-2.72 3.033,-6.345 3.161,-10.485c0.064,-2.052 -0.033,-3.949 -0.135,-5.959c-0.082,-1.592 -0.165,-3.238 -0.165,-4.996l0.276,0c0,1.751 0.084,3.394 0.165,4.983c0.102,2.014 0.199,3.917 0.135,5.98c-0.13,4.193 -1.24,7.87 -3.211,10.634c-1.37,1.921 -3.2,3.489 -4.969,5.005c-1.551,1.329 -3.157,2.704 -4.439,4.309c-1.821,2.278 -2.892,4.948 -3.017,7.52c-0.033,0.687 -0.002,1.39 0.028,2.07c0.039,0.862 0.079,1.754 -0.011,2.631c-0.369,3.608 -3.09,6.849 -6.618,7.881" style="fill:#fff;fill-rule:nonzero;"/><path d="M96.822,83.425c0,-0.76 0.625,-1.375 1.396,-1.375c0.771,0 1.396,0.615 1.396,1.375c0,0.573 -0.356,1.063 -0.861,1.27l0,2.443c0,0.238 -0.197,0.433 -0.439,0.433l-0.192,0c-0.242,0 -0.439,-0.195 -0.439,-0.433l0,-2.443c-0.505,-0.207 -0.861,-0.697 -0.861,-1.27" style="fill:#fff;fill-rule:nonzero;"/><path d="M127.522,135.042c-2.239,-0.442 -4.206,-2.487 -5.011,-5.21c-0.57,-1.927 -0.599,-3.97 -0.626,-5.946c-0.008,-0.481 -0.014,-0.961 -0.029,-1.439c-0.068,-2.298 -0.335,-4.925 -1.805,-6.995c-1.67,-2.353 -4.64,-3.508 -6.729,-4.171c-0.613,-0.195 -1.245,-0.379 -1.855,-0.557c-1.982,-0.578 -4.031,-1.176 -5.829,-2.245c-3.318,-1.973 -5.767,-5.543 -6.897,-10.05c-1.032,-4.115 -0.868,-8.518 -0.633,-12.322l0.275,0.017c-0.233,3.783 -0.396,8.162 0.626,12.24c1.113,4.437 3.517,7.946 6.772,9.882c1.767,1.051 3.799,1.644 5.764,2.216c0.612,0.179 1.245,0.364 1.862,0.56c2.126,0.675 5.152,1.853 6.87,4.274c1.511,2.128 1.786,4.805 1.856,7.142c0.014,0.48 0.021,0.961 0.027,1.443c0.028,1.959 0.057,3.983 0.616,5.874c0.59,1.995 2.201,4.506 4.8,5.02l-0.054,0.267Z" style="fill:#fff;fill-rule:nonzero;"/><path d="M164.394,181.642l-78.959,0l-6.527,-48.669c-0.205,-1.532 1.004,-2.892 2.572,-2.892l86.869,0c1.568,0 2.778,1.36 2.572,2.892l-6.527,48.669Z" style="fill:#252e4c;fill-rule:nonzero;"/><path d="M131.88,155.861c0,3.792 -3.119,6.865 -6.966,6.865c-3.846,0 -6.965,-3.073 -6.965,-6.865c0,-3.791 3.119,-6.864 6.965,-6.864c3.847,0 6.966,3.073 6.966,6.864" style="fill:#465c87;fill-rule:nonzero;"/><path d="M62.599,170.822c0.823,0 1.49,0.658 1.49,1.468l0,7.441c0,3.167 -2.442,5.758 -5.426,5.758l-4.053,0c-2.985,0 -5.427,-2.591 -5.427,-5.758l0,-7.441c0,-0.81 0.667,-1.468 1.49,-1.468l11.926,0Z" style="fill:#252e4c;fill-rule:nonzero;"/><path d="M64.089,174.721c-1.467,0 -2.66,1.176 -2.66,2.622c0,1.445 1.193,2.621 2.66,2.621c1.467,0 2.66,-1.176 2.66,-2.621c0,-1.446 -1.193,-2.622 -2.66,-2.622m0,6.333c-2.076,0 -3.765,-1.665 -3.765,-3.711c0,-2.046 1.689,-3.711 3.765,-3.711c2.076,0 3.765,1.665 3.765,3.711c0,2.046 -1.689,3.711 -3.765,3.711" style="fill:#1b263d;fill-rule:nonzero;"/><path d="M62.599,170.822l-7.501,0c0.856,1.02 1.623,2.105 2.214,3.291c1.022,2.052 1.495,4.434 0.938,6.652c-0.482,1.925 -1.746,3.649 -3.449,4.705c-0.011,0.007 -0.022,0.012 -0.033,0.019l3.895,0c2.984,0 5.426,-2.591 5.426,-5.758l0,-7.441c0,-0.81 -0.667,-1.468 -1.49,-1.468" style="fill:#1b263d;fill-rule:nonzero;"/><path d="M56.765,169.787c-0.889,-0.379 -1.51,-1.304 -1.665,-2.302c-0.084,-0.502 -0.011,-1.04 0.16,-1.498c0.177,-0.462 0.403,-0.871 0.627,-1.262c0.446,-0.778 0.913,-1.493 1.084,-2.294c0.191,-0.766 0.015,-1.705 -0.695,-2.219l0.054,-0.094c0.426,0.187 0.76,0.566 0.952,0.996c0.197,0.428 0.271,0.919 0.236,1.393c-0.083,0.953 -0.508,1.805 -0.835,2.597c-0.162,0.4 -0.303,0.794 -0.371,1.179c-0.073,0.385 -0.116,0.733 -0.111,1.107c-0.001,0.749 0.202,1.516 0.638,2.316l-0.074,0.081Z" style="fill:#fff;fill-rule:nonzero;"/><path d="M59.897,168.963c-0.664,-0.159 -1.18,-0.769 -1.322,-1.49c-0.073,-0.363 -0.018,-0.764 0.131,-1.087c0.149,-0.327 0.357,-0.593 0.551,-0.84c0.391,-0.497 0.816,-0.88 1.128,-1.323c0.316,-0.44 0.552,-0.959 0.434,-1.513l0.058,0.048l-0.143,-0.046l0.02,-0.107l0.15,0.006l0.032,0.001l0.025,0.047c0.304,0.564 0.169,1.271 -0.071,1.833c-0.246,0.584 -0.628,1.066 -0.884,1.542c-0.131,0.237 -0.213,0.483 -0.256,0.705c-0.043,0.226 -0.073,0.415 -0.084,0.63c-0.028,0.438 0.063,0.923 0.301,1.511l-0.07,0.083Z" style="fill:#fff;fill-rule:nonzero;"/><path d="M53.737,167.896c-0.648,-0.019 -1.217,-0.494 -1.507,-1.077c-0.148,-0.296 -0.21,-0.636 -0.179,-0.968c0.031,-0.332 0.137,-0.662 0.26,-0.938c0.244,-0.558 0.581,-0.976 0.769,-1.42c0.189,-0.436 0.256,-0.978 -0.07,-1.389l0.072,-0.082c0.248,0.155 0.42,0.431 0.493,0.72c0.078,0.29 0.082,0.595 0.039,0.892c-0.103,0.595 -0.361,1.098 -0.465,1.558c-0.107,0.461 0.05,0.836 0.117,1.249c0.088,0.421 0.233,0.836 0.527,1.361l-0.056,0.094Z" style="fill:#fff;fill-rule:nonzero;"/><path d="M164.762,185.481c0.955,0 1.729,-0.763 1.729,-1.705l0,-0.43c0,-0.941 -0.774,-1.705 -1.729,-1.705l-29.241,0c-0.777,1.326 -1.626,2.609 -2.547,3.84l31.788,0Z" style="fill:#0d1629;fill-rule:nonzero;"/><path d="M168.349,130.081l-41.508,0c8.665,7.885 14.137,19.208 14.287,30.834c0.095,7.24 -1.934,14.464 -5.607,20.727l28.873,0l6.527,-48.669c0.205,-1.532 -1.004,-2.892 -2.572,-2.892" style="fill:#1b263d;fill-rule:nonzero;"/><path d="M139.752,61.115c6.843,8.143 9.366,20.036 6.113,30.323c-2.818,8.911 -9.845,16.212 -18.314,19.646c12.604,-1.119 22.57,-11.633 22.57,-24.334l0,-5.798c0,-8.147 -4.103,-15.39 -10.369,-19.837" style="fill:#ebaea2;fill-rule:nonzero;"/><path d="M150.854,77.532c-2.809,-12.024 -13.211,-21.019 -25.528,-21.019l-0.003,0c-12.316,0 -22.719,8.995 -25.528,21.019l10.593,0l3.338,-8.764l0,8.764l15.493,0l2.407,-6.477l0,6.477l11.141,0l-0.584,-6.192l2.865,6.192l5.806,0Z" style="fill:#2a2e4e;fill-rule:nonzero;"/><path d="M139.657,61.004c3.918,4.616 6.437,10.453 7.29,16.528l3.907,0c-1.606,-6.871 -5.692,-12.748 -11.197,-16.528" style="fill:#1b263d;fill-rule:nonzero;"/><path d="M135.996,57.403c0.901,-1.697 1.414,-3.625 1.414,-5.673c0,-6.766 -5.566,-12.252 -12.431,-12.252c-5.307,0 -9.836,3.279 -11.618,7.893c8.053,2.183 16.219,4.721 22.635,10.032" style="fill:#1b263d;fill-rule:nonzero;"/><path d="M125.324,111.188c0.276,-0.005 0.676,-0.052 1.143,-0.138c1.174,-0.214 2.781,-0.669 3.983,-1.322l-0.265,1.46l-4.861,0Z" style="fill:#ebaea2;fill-rule:nonzero;"/></g></svg>